<svg id="Компонент_54_1" data-name="Компонент 54 – 1" xmlns="http://www.w3.org/2000/svg" width="290" height="120" viewBox="0 0 290 120">
  <rect id="Прямоугольник_224" data-name="Прямоугольник 224" width="290" height="120" fill="#fff"/>
  <g id="feelreal" transform="translate(103.434 -10.486)">
    <path id="Контур_174" data-name="Контур 174" d="M754.385,546.91h-12.41c-.268,0-.537,0-.8-.012a1.807,1.807,0,0,1-1.891-1.9V527.9h2.981c.44,0,.456.018.456.45v10.732q0,1.956-.012,3.915c0,.884.328,1.218,1.23,1.22l9.674.024.766.012Z" transform="translate(-601.464 -466.936)"/>
    <path id="Контур_175" data-name="Контур 175" d="M276.219,235.38c.028-.8.012-1.636.1-2.456a2.815,2.815,0,0,1,1.163-2.1c-.078-.081-.133-.136-.184-.193a1.247,1.247,0,0,1,.01-1.729c.106-.113.188-.2.106-.379a14.884,14.884,0,0,0-2.509-3.919,15.485,15.485,0,0,0-1.393-1.262,1.045,1.045,0,0,0-.4-.166,3.125,3.125,0,0,1-1.709-1.131,5.5,5.5,0,0,1-.332-.583,2.349,2.349,0,0,1,.389-.022,2.858,2.858,0,0,1,2.048,1.29,2.806,2.806,0,0,0,.349.428,14.641,14.641,0,0,1,3.384,4.4c.13.276.239.558.347.842.053.138.118.2.282.166a1.52,1.52,0,0,1,.555,0c.229.051.312-.043.387-.231a12.7,12.7,0,0,1,3.4-4.736,2.43,2.43,0,0,0,.624-.8,2.681,2.681,0,0,1,2.38-1.345,1.7,1.7,0,0,1-.125.367,3.474,3.474,0,0,1-1.794,1.41,3.415,3.415,0,0,0-1.055.6,13.359,13.359,0,0,0-2.858,3.851,5.811,5.811,0,0,0-.369.8.53.53,0,0,0,.055.423,1.246,1.246,0,0,1-.12,1.813.555.555,0,0,0-.048.066c0,.025,0,.053.013.061a3.655,3.655,0,0,1,1.222,3.019c.027.475,0,.95,0,1.382a.554.554,0,0,0,.071-.135,15.727,15.727,0,0,1,3.688-6.183,32.939,32.939,0,0,1,11.773-8.152,24.8,24.8,0,0,1,6.568-1.624,6.487,6.487,0,0,1,3.8.583,3.389,3.389,0,0,1,1.943,3.888,17.081,17.081,0,0,1-1.407,4.193,27.493,27.493,0,0,0-1.3,3.24,30.832,30.832,0,0,0-.664,3.605,10.86,10.86,0,0,1-.93,3.291,5.448,5.448,0,0,1-4.416,3.1l-2.1.282c.166.166.262.3.385.41.664.581,1.307,1.189,2,1.729a3.745,3.745,0,0,1,1.378,3.933,16.937,16.937,0,0,1-2.878,6.669,15.768,15.768,0,0,1-3.094,3.321,5.887,5.887,0,0,1-6.923.5,14.805,14.805,0,0,1-4.175-3.619,26.03,26.03,0,0,1-3.532-5.6,12.227,12.227,0,0,1-1.182-5.346c0-.206-.01-.41-.018-.616,0-.027-.02-.051-.073-.076-.027.47-.065.94-.076,1.412-.035,1.329-.032,2.665-.091,4-.068,1.5-.179,3.009-.289,4.512a2.432,2.432,0,0,1-.2.7.316.316,0,0,1-.226.183.309.309,0,0,1-.226-.186,7.82,7.82,0,0,1-.3-1.43c-.095-1.75-.146-3.5-.208-5.254-.025-.7-.033-1.41-.051-2.116a.4.4,0,0,0-.086-.262c-.028.191-.073.382-.085.575a13.171,13.171,0,0,1-1.81,5.567,23.623,23.623,0,0,1-4.152,5.67,10.674,10.674,0,0,1-4.524,2.861,5.385,5.385,0,0,1-4.7-.787,15.025,15.025,0,0,1-4.5-5.055,16.257,16.257,0,0,1-1.973-5.072,3.651,3.651,0,0,1,1.156-4c.721-.649,1.463-1.274,2.194-1.913a4.288,4.288,0,0,0,.317-.332l-.017-.1c-.332-.047-.664-.091-1-.141-.57-.086-1.146-.154-1.711-.267a5.263,5.263,0,0,1-3.82-3.1,10.924,10.924,0,0,1-.928-3.775A15.642,15.642,0,0,0,250.4,229.3a25.115,25.115,0,0,1-1.8-4.65,5.45,5.45,0,0,1-.166-2.038,3.391,3.391,0,0,1,2.212-2.684,6.481,6.481,0,0,1,3.275-.458,23.363,23.363,0,0,1,6.723,1.583,32.7,32.7,0,0,1,9.986,6.311A21.694,21.694,0,0,1,274.633,232a14.78,14.78,0,0,1,1.495,3.155C276.163,235.249,276.2,235.335,276.219,235.38Z" transform="translate(-317.835 -168.613)"/>
    <path id="Контур_176" data-name="Контур 176" d="M434.721,540.2l7.236,6.734c-.229.016-.369.032-.509.032-1.141,0-2.282,0-3.425-.022a.939.939,0,0,1-.582-.241q-3.113-3.044-6.2-6.108a2.288,2.288,0,0,1-.717-1.826,1.165,1.165,0,0,1,1.169-1.185q2.008-.057,4.018-.071c1.51-.012,2.142-.529,2.369-2.026a8.426,8.426,0,0,0-.039-3.058,1.922,1.922,0,0,0-2.006-1.726c-2.225-.045-4.45-.051-6.675-.049a1.22,1.22,0,0,0-1.26,1.362v14.412c0,.543,0,.545-.541.545h-2.867c0-.152-.018-.274-.018-.395v-16.08a2.334,2.334,0,0,1,2.345-2.476c2.085-.059,4.17-.059,6.255-.065,1.514,0,3.031-.038,4.541.041a3.8,3.8,0,0,1,3.676,3.236,14.433,14.433,0,0,1,.045,5.281,5.145,5.145,0,0,1-1.021,2.27,3.392,3.392,0,0,1-2.8,1.244c-.79.012-1.579.024-2.369.049a4.273,4.273,0,0,0-.622.12Z" transform="translate(-348.967 -466.972)"/>
    <path id="Контур_177" data-name="Контур 177" d="M150.762,527.892v2.7H141a6.417,6.417,0,0,0-.871.051.969.969,0,0,0-.924,1.035v3.775c0,.271.111.381.373.377.592,0,1.185-.018,1.777-.018H149.5c.255,0,.511.022.768.02a.259.259,0,0,1,.3.3v2.061c0,.286-.158.395-.424.385h-10.6c-.3,0-.346.148-.346.395v3.637a7.2,7.2,0,0,0,.032.8.772.772,0,0,0,.655.721,5.326,5.326,0,0,0,.934.109q4.825.012,9.65,0h.424v2.681h-2.134l-10.734-.012a2.024,2.024,0,0,1-2.253-2.241q-.016-5.228-.022-10.464c0-1.4.024-2.8.047-4.193a1.957,1.957,0,0,1,1.974-2.047c1.56-.051,3.119-.065,4.681-.073h7.867Z" transform="translate(-117.088 -466.928)"/>
    <path id="Контур_178" data-name="Контур 178" d="M550.108,544.257v2.681h-.381l-12.653-.012a1.912,1.912,0,0,1-2.061-1.84,8.822,8.822,0,0,1-.053-.94V530.479a3.884,3.884,0,0,1,.132-1.035,1.872,1.872,0,0,1,1.86-1.457c1.025-.038,2.049-.065,3.074-.067h9.946v2.7h-.395q-4.859,0-9.717.014a3.948,3.948,0,0,0-.592.055.938.938,0,0,0-.863.94c-.016,1.3,0,2.61,0,3.915a.262.262,0,0,0,.294.3h.837l7.794.024c.64,0,1.281-.02,1.921-.022.452,0,.505.057.507.5v1.777c0,.421-.061.48-.492.478h-5.384c-1.69,0-3.378.014-5.068,0-.308,0-.415.1-.413.395v4.089c0,.74.286,1.038,1.011,1.119a6.639,6.639,0,0,0,.766.047h9.929Z" transform="translate(-437.482 -466.952)"/>
    <path id="Контур_179" data-name="Контур 179" d="M249.592,544.228v2.681h-.559l-12.41-.012a1.919,1.919,0,0,1-2.122-1.81,4.768,4.768,0,0,1-.043-.732V530.441a3.909,3.909,0,0,1,.162-1.131,1.824,1.824,0,0,1,1.8-1.348c2.154-.041,4.308-.061,6.464-.073,2.051-.012,4.1,0,6.152,0h.432v2.7h-9.694a7.042,7.042,0,0,0-1.078.081.883.883,0,0,0-.79.881q-.026,1.974,0,3.949c0,.107.166.241.284.31s.229.018.346.018l9.052-.022c.442,0,.884.024,1.327.02.223,0,.32.081.318.306v2.132a.257.257,0,0,1-.3.294H238.34c-.351,0-.464.1-.458.452.018,1.341,0,2.681,0,4.022,0,.752.245,1.034.987,1.135a4.586,4.586,0,0,0,.659.049h9.613Z" transform="translate(-196.307 -466.922)"/>
    <path id="Контур_180" data-name="Контур 180" d="M621.47,546.184c.221-.549.415-1.044.622-1.536q3.25-7.717,6.515-15.431a8.488,8.488,0,0,1,.616-1.171,2.13,2.13,0,0,1,1.8-1.042,12.065,12.065,0,0,1,1.6.045,2.2,2.2,0,0,1,1.885,1.416c.565,1.264,1.123,2.531,1.658,3.806q2.841,6.754,5.662,13.518c.047.115.087.231.148.395h-2.454c-1.412-.024-1.05.241-1.605-1.074-.448-1.062-.865-2.136-1.3-3.2-.221-.545-.241-.559-.815-.559h-6.9c-.419,0-.839-.022-1.258-.022-.511,0-.644.1-.835.576-.511,1.273-1.033,2.543-1.532,3.822a.632.632,0,0,1-.7.468C623.577,546.167,622.562,546.184,621.47,546.184Zm10.252-7.261h3.212c.5,0,.549-.067.371-.521q-.424-1.09-.861-2.172-1.123-2.8-2.247-5.6c-.091-.229-.221-.466-.49-.395a.713.713,0,0,0-.432.371c-1.06,2.6-2.1,5.214-3.149,7.824-.178.444-.14.5.347.5Z" transform="translate(-506.913 -466.21)"/>
    <path id="Контур_181" data-name="Контур 181" d="M56.036,527.9v2.7H45.582c-.877,0-1.139.267-1.139,1.151v3.635c0,.5.034.539.533.539h7.34c.592,0,.592,0,.592.592v2.124H45.057c-.614,0-.614,0-.614.622v7.165c0,.468-.016.486-.5.488H41V530.865a8.584,8.584,0,0,1,.059-1.149,1.955,1.955,0,0,1,1.838-1.747c.452-.039.906-.065,1.36-.067H55.578Z" transform="translate(-41.04 -466.936)"/>
    <path id="Контур_182" data-name="Контур 182" d="M333.308,527.9h2.956c.316,0,.468.1.468.444-.012,4.778,0,9.557-.02,14.335,0,1.254.16,1.477,1.4,1.546.742.042,1.491.018,2.237.02H347.2c.3,0,.6-.016.906-.012a.27.27,0,0,1,.3.306V546.9a1.767,1.767,0,0,1-.217.028q-6.5,0-13.007-.026a1.748,1.748,0,0,1-1.881-1.907V527.9Z" transform="translate(-275.636 -466.936)"/>
  </g>
</svg>
