<svg xmlns="http://www.w3.org/2000/svg" width="236.43" height="20" viewBox="0 0 236.43 20">
  <path id="spacebit" d="M193.785,408.677H175.928a2.49,2.49,0,0,1-2.457-2.413,2.278,2.278,0,0,1,2.2-2.413h22.278v-3.427H175.667a5.724,5.724,0,0,0-5.608,5.825,5.927,5.927,0,0,0,5.869,5.825h17.857a2.49,2.49,0,0,1,2.457,2.413,2.278,2.278,0,0,1-2.2,2.413H171.763v3.427h22.283a5.656,5.656,0,0,0,5.608-5.825,5.927,5.927,0,0,0-5.869-5.825Zm35.859-8.267H205.686v3.465h24.006a2.278,2.278,0,0,1,2.2,2.413,2.49,2.49,0,0,1-2.457,2.413H205.7V420.41h3.427v-8.287H229.48a5.888,5.888,0,0,0,5.792-5.845,5.791,5.791,0,0,0-5.627-5.869Zm41.911,9.981a6.733,6.733,0,0,1,6.617-6.511h17.181v-3.427H278.172a10.135,10.135,0,0,0-10.029,9.937,9.624,9.624,0,0,0,9.508,9.937h17.7V416.9h-17.7a6.243,6.243,0,0,1-6.1-6.511Zm57.032-9.937-27.181-.039v3.465h27.181Zm-27.181,9.855v8.243a1.737,1.737,0,0,0,1.68,1.771h25.5V416.9h-23.9v-4.937l23.895.034v-3.427H303.085a1.708,1.708,0,0,0-1.68,1.742Zm57.843-9.855H336.965a1.713,1.713,0,0,0-1.708,1.713v16.448a1.713,1.713,0,0,0,1.708,1.713h22.022a5.869,5.869,0,0,0,4.17-9.981,5.791,5.791,0,0,0,1.7-4.054A5.729,5.729,0,0,0,359.248,400.453Zm-.261,16.448H338.669v-4.8h20.579a2.278,2.278,0,0,1,2.2,2.413A2.49,2.49,0,0,1,358.988,416.9Zm0-8.2H338.669V403.88h20.579a2.278,2.278,0,0,1,2.2,2.413,2.49,2.49,0,0,1-2.457,2.384ZM370.9,420.347h3.412V400.453H370.9ZM249.031,400.415h0l-13.8,19.913.058.039h4.069l11.752-16.984,11.733,16.945h4.069l.058-.039-13.832-19.875Zm146.115,0H380.382v3.465H391.71v16.491h3.451V403.895h11.327V400.41Z" transform="translate(-170.058 -400.41)"/>
</svg>
